<svg width="19" height="19" viewBox="0 0 19 19" fill="none" xmlns="http://www.w3.org/2000/svg">
<g clip-path="url(#clip0_873_15338)">
<path d="M18.5 9.5C18.5 4.52947 14.4705 0.5 9.5 0.5C4.52947 0.5 0.5 4.5294 0.5 9.5C0.5 13.9921 3.79119 17.7155 8.09375 18.3907V12.1016H5.80859V9.5H8.09375V7.51719C8.09375 5.26156 9.43742 4.01562 11.4931 4.01562C12.4779 4.01562 13.5078 4.19141 13.5078 4.19141V6.40625H12.373C11.2549 6.40625 10.9062 7.10002 10.9062 7.8118V9.5H13.4023L13.0033 12.1016H10.9062V18.3907C15.2088 17.7155 18.5 13.9922 18.5 9.5Z" fill="#1877F2"/>
<path d="M13.0033 12.1016L13.4023 9.5H10.9062V7.8118C10.9062 7.09995 11.2549 6.40625 12.373 6.40625H13.5078V4.19141C13.5078 4.19141 12.4779 4.01562 11.4931 4.01562C9.43742 4.01562 8.09375 5.26156 8.09375 7.51719V9.5H5.80859V12.1016H8.09375V18.3907C8.55895 18.4636 9.02912 18.5001 9.5 18.5C9.97088 18.5001 10.4411 18.4636 10.9062 18.3907V12.1016H13.0033Z" fill="white"/>
</g>
<defs>
<clipPath id="clip0_873_15338">
<rect width="18" height="18" fill="white" transform="translate(0.5 0.5)"/>
</clipPath>
</defs>
</svg>
