<svg width="18" height="19" viewBox="0 0 18 19" fill="none" xmlns="http://www.w3.org/2000/svg">
<g clip-path="url(#clip0_873_15632)">
<path d="M17.9913 9.66863C17.9913 8.93117 17.9301 8.39303 17.7975 7.83496H9.1792V11.1634H14.238C14.136 11.9906 13.5853 13.2363 12.3613 14.0734L12.3442 14.1848L15.0691 16.2475L15.2579 16.2659C16.9918 14.7013 17.9913 12.3992 17.9913 9.66863Z" fill="#4285F4"/>
<path d="M9.1792 18.4384C11.6576 18.4384 13.7382 17.6411 15.2579 16.2659L12.3613 14.0734C11.5862 14.6015 10.5459 14.9703 9.1792 14.9703C6.7518 14.9703 4.69157 13.4057 3.95716 11.2432L3.84951 11.2521L1.01606 13.3947L0.979004 13.4954C2.48847 16.4252 5.58904 18.4384 9.1792 18.4384Z" fill="#34A853"/>
<path d="M3.95726 11.2431C3.76348 10.685 3.65133 10.087 3.65133 9.4692C3.65133 8.85129 3.76348 8.25338 3.94706 7.69531L3.94193 7.57645L1.07297 5.39941L0.979102 5.44304C0.356977 6.65886 0 8.02419 0 9.4692C0 10.9142 0.356977 12.2795 0.979102 13.4953L3.95726 11.2431Z" fill="#FBBC05"/>
<path d="M9.1792 3.96802C10.9028 3.96802 12.0655 4.69551 12.7285 5.30346L15.3191 2.83196C13.7281 1.38695 11.6576 0.5 9.1792 0.5C5.58904 0.5 2.48847 2.51305 0.979004 5.44292L3.94696 7.69519C4.69157 5.53265 6.7518 3.96802 9.1792 3.96802Z" fill="#EB4335"/>
</g>
<defs>
<clipPath id="clip0_873_15632">
<rect width="18" height="18" fill="white" transform="translate(0 0.5)"/>
</clipPath>
</defs>
</svg>
