<svg width="40" height="40" viewBox="0 0 40 40" fill="none" xmlns="http://www.w3.org/2000/svg">
<rect width="40" height="40" rx="8" fill="#3A3541"/>
<path d="M12.7814 12.9783H27.2186V27.0217H12.7814V12.9783Z" fill="#0C0824"/>
<path d="M12.7814 12.9783H27.2186V27.0217H12.7814V12.9783ZM12.125 27.6781H27.875V12.3219H12.125V27.6781ZM22.7433 18.6219C22.2247 18.6219 22.0475 18.8846 22.0475 19.1011C22.0475 19.3374 22.1656 19.5016 22.8614 19.8622C23.8919 20.3611 24.2114 20.8398 24.2114 21.5424C24.2114 22.5926 23.411 23.1568 22.3282 23.1568C21.8635 23.174 21.4016 23.0774 20.9827 22.8755C20.9366 22.8558 20.9304 22.8232 20.9304 22.7703V21.8045C20.9304 21.7387 20.963 21.719 21.0091 21.7522C21.4025 22.0052 21.8605 22.1395 22.3282 22.1392C22.8468 22.1392 23.0634 21.9226 23.0634 21.6273C23.0634 21.3911 22.9126 21.1813 22.2494 20.8398C21.3174 20.3938 20.9304 19.9398 20.9304 19.1861C20.9304 18.3395 21.593 17.6375 22.7416 17.6375C23.1414 17.6204 23.5407 17.6829 23.9161 17.8215C23.9377 17.8355 23.9552 17.855 23.9668 17.8781C23.9784 17.9011 23.9836 17.9268 23.9819 17.9525V18.8525C23.9819 18.9048 23.9493 18.938 23.8835 18.9183C23.5365 18.7186 23.1419 18.6165 22.7416 18.623L22.7433 18.6219ZM17.0992 19.4026C17.2499 19.4156 17.3681 19.4156 17.6308 19.4156C18.3986 19.4156 19.1202 19.1467 19.1202 18.1033C19.1202 17.2696 18.6016 16.85 17.7292 16.85C17.4665 16.85 17.2173 16.863 17.0992 16.8697V19.4026ZM15.9309 15.9151C15.9309 15.869 16.0226 15.8364 16.0754 15.8364C16.6395 15.8133 17.204 15.8025 17.7686 15.8038C19.5866 15.8038 20.2953 16.8011 20.2953 18.0746C20.2953 19.7413 19.0876 20.4568 17.6049 20.4568C17.3557 20.4568 17.2702 20.4438 17.093 20.4438V22.9638C17.093 23.0161 17.0733 23.0426 17.0143 23.0426H16.0102C15.9579 23.0426 15.9314 23.0229 15.9314 22.9638V15.918L15.9309 15.9151Z" fill="#31C5F0"/>
</svg>
